<?xml version="1.0" encoding="utf-8"?>
<!-- Generator: Adobe Illustrator 27.2.0, SVG Export Plug-In . SVG Version: 6.00 Build 0)  -->
<svg version="1.1" id="Layer_1" xmlns="http://www.w3.org/2000/svg" xmlns:xlink="http://www.w3.org/1999/xlink" x="0px" y="0px"
	 viewBox="0 0 864 288" style="enable-background:new 0 0 864 288;" xml:space="preserve">
<style type="text/css">
	.st0{fill:none;stroke:#FF0000;stroke-width:0.01;stroke-linecap:round;stroke-linejoin:round;stroke-miterlimit:10;}
	.st1{fill:none;stroke:#FF0000;stroke-width:0.01;stroke-miterlimit:10;}
</style>
<g>
	<path class="st0" d="M193.48,231.92c0-3.76,3.05-6.81,6.81-6.81c3.76,0,6.81,3.05,6.81,6.81c0,3.76-3.05,6.81-6.81,6.81
		C196.53,238.73,193.48,235.68,193.48,231.92"/>
	<path class="st0" d="M216.16,231.92c0-3.76,3.05-6.81,6.81-6.81c3.76,0,6.81,3.05,6.81,6.81c0,3.76-3.05,6.81-6.81,6.81
		C219.21,238.73,216.16,235.68,216.16,231.92"/>
	<path class="st0" d="M170.8,231.92c0-3.76,3.05-6.81,6.81-6.81c3.76,0,6.81,3.05,6.81,6.81c0,3.76-3.05,6.81-6.81,6.81
		C173.85,238.73,170.8,235.68,170.8,231.92"/>
	<path class="st0" d="M261.52,186.56c0-3.76,3.05-6.81,6.81-6.81s6.81,3.05,6.81,6.81c0,3.76-3.05,6.81-6.81,6.81
		S261.52,190.32,261.52,186.56"/>
	<path class="st0" d="M238.84,186.56c0-3.76,3.05-6.81,6.81-6.81s6.81,3.05,6.81,6.81c0,3.76-3.05,6.81-6.81,6.81
		S238.84,190.32,238.84,186.56"/>
	<path class="st0" d="M216.16,186.56c0-3.76,3.05-6.81,6.81-6.81c3.76,0,6.81,3.05,6.81,6.81c0,3.76-3.05,6.81-6.81,6.81
		C219.21,193.37,216.16,190.32,216.16,186.56"/>
	<path class="st0" d="M193.48,186.56c0-3.76,3.05-6.81,6.81-6.81c3.76,0,6.81,3.05,6.81,6.81c0,3.76-3.05,6.81-6.81,6.81
		C196.53,193.37,193.48,190.32,193.48,186.56"/>
	<path class="st0" d="M170.8,186.56c0-3.76,3.05-6.81,6.81-6.81c3.76,0,6.81,3.05,6.81,6.81c0,3.76-3.05,6.81-6.81,6.81
		C173.85,193.37,170.8,190.32,170.8,186.56"/>
	<path class="st0" d="M148.12,186.56c0-3.76,3.05-6.81,6.81-6.81c3.76,0,6.81,3.05,6.81,6.81c0,3.76-3.05,6.81-6.81,6.81
		C151.17,193.37,148.12,190.32,148.12,186.56"/>
	<path class="st0" d="M125.44,186.56c0-3.76,3.05-6.81,6.81-6.81c3.76,0,6.81,3.05,6.81,6.81c0,3.76-3.05,6.81-6.81,6.81
		C128.49,193.37,125.44,190.32,125.44,186.56"/>
	<g>
		<path class="st1" d="M258.13,246.01c0.56,2.21,0.92,4.23,1.59,6.15c1.09,3.09,1.9,6.28,4.24,8.85c3.48,3.82,8.08,4.6,12.74,4.74
			c4.51,0.14,9.04-0.45,13.56-0.73c0.28-0.02,0.56-0.15,0.84-0.14c1.01,0.04,2.19-0.19,3.01,0.23c2.81,1.44,5.39,3.33,8.24,4.66
			c4.41,2.05,8.95,3.93,14,3.58c6.42-0.45,12.87-0.65,19.24-1.51c6.11-0.82,11.51-3.77,16.22-7.67c3.51-2.91,4.39-8.74,2.12-12.71
			c-1.6-2.8-3.5-5.48-5.58-7.96c-3.84-4.6-7.07-9.48-8.67-15.33c-0.47-1.7-0.42-2.66,1.61-3.28c5.64-1.73,10.86-4.44,15.47-8.12
			c4.12-3.28,7.98-6.89,11.94-10.35c3.81-3.33,6.91-7.22,9.28-11.71c1.89-3.6,3.71-7.25,5.88-10.68c4.34-6.85,7.82-14.11,10.28-21.8
			c1.4-4.39,3.63-7.67,7.71-9.89c2.2-1.2,4.22-2.87,6.03-4.63c3.58-3.49,6.41-7.54,8.89-11.92c5.16-9.12,8.77-18.54,7.86-29.27
			c-0.42-5-0.09-10.12-1.05-15c-1.4-7.12-4.01-13.98-7.76-20.22c-3.32-5.54-6.97-10.92-10.88-16.07c-3.24-4.26-7.21-7.83-12.43-9.78
			c-3.16-1.18-6.15-2.8-9.29-4.03c-3.23-1.27-6.71-1.87-10.06-1.1c-8.07,1.85-15.6,4.68-22,10.49c-5.96,5.41-9.81,11.87-12.49,19.2
			c-2.96,8.1-3.48,16.57-3.57,25.11c-0.03,3.19-0.37,6.38-0.54,9.57c-0.12,2.21-0.44,4.45-0.21,6.62
			c0.62,5.69,1.59,11.36,4.18,16.54c2.42,4.85,4.91,9.7,7.78,14.3c1.06,1.7,1.75,2.75,0.13,4.36c-2.05-1.22-4.11-2.41-6.11-3.68
			c-0.5-0.32-1.01-0.85-1.21-1.39c-3.33-8.82-6.64-17.64-9.88-26.49c-3.64-9.96-8.19-19.52-14.33-28.11
			c-4.97-6.95-10.57-13.52-16.45-19.74c-5.55-5.86-11.78-11.08-17.79-16.48c-2-1.79-4.1-3.58-6.43-4.87
			c-5.48-3.05-11-6.06-16.72-8.61c-10.95-4.87-22.32-8.35-34.46-8.54c-1.27-0.02-2.54-0.23-3.82-0.31
			c-8.07-0.49-16.15-1.27-24.22-1.38c-11.51-0.15-23,0.5-34.29,3.1c-7.22,1.66-14.38,3.6-20.9,7.21c-4.75,2.63-9.33,5.58-13.97,8.4
			c-8.51,5.18-16.29,11.4-23.55,18.12c-6.37,5.9-12.02,12.63-17.54,19.37c-5.7,6.95-10.88,14.33-16.24,21.55
			c-4.36,5.87-7.13,12.59-9.86,19.27c-1.93,4.73-3.27,9.73-4.51,14.7c-2.05,8.25-3.53,16.61-3.44,25.16
			c0.01,1.29-0.23,2.17-1.27,3.07c-1.4,1.2-2.7,2.62-3.71,4.16c-2.18,3.33-4.14,6.81-6.21,10.24c-0.18-0.18-0.56-0.5-0.88-0.88
			c-2.2-2.59-4.29-5.28-6.61-7.75c-1.96-2.09-4.57-2.83-7.19-1.55c-2.61,1.27-4.12,3.55-3.58,6.62c0.33,1.87,0.94,3.7,1.43,5.54
			c1.23,4.62,2.07,9.39,3.78,13.82c2.28,5.91,5.41,11.38,9.78,16.18c5.85,6.43,12.54,11.47,20.69,14.52
			c2.26,0.84,4.52,1.67,6.51,2.4c-2.61,4.5-5.29,8.9-7.73,13.43c-1.93,3.57-2.3,7.43-0.69,11.24c1.78,4.21,5.52,6.72,9.15,8.96
			c3.94,2.43,8.33,4.18,12.61,6.01c12.23,5.23,24.97,7.9,38.32,6.81c3-0.24,5.99-0.98,8.91-1.77c2.14-0.59,4.1-2.16,6.24-2.39
			c4.1-0.43,7.8-1.8,11.49-3.46c4.74-2.13,6.97-5.68,6.44-10.76c-0.07-0.68-0.38-1.35-0.69-1.97c-1.02-2.05-2.08-4.07-3.39-6.61
			c3.7,0.46,6.76,1.02,9.85,1.19c7.9,0.45,15.8,0.9,23.71,1.03c8.1,0.13,16.21,0.04,24.31-0.27c10.75-0.42,21.55,0.13,32.22-1.76
			c3.9-0.69,7.81-1.35,11.72-1.96C249.9,247.2,253.89,246.64,258.13,246.01z"/>
	</g>
</g>
<g>
	<path class="st0" d="M667.98,231.92c0-3.76-3.05-6.81-6.81-6.81c-3.76,0-6.81,3.05-6.81,6.81c0,3.76,3.05,6.81,6.81,6.81
		C664.93,238.73,667.98,235.68,667.98,231.92"/>
	<path class="st0" d="M645.3,231.92c0-3.76-3.05-6.81-6.81-6.81c-3.76,0-6.81,3.05-6.81,6.81c0,3.76,3.05,6.81,6.81,6.81
		C642.25,238.73,645.3,235.68,645.3,231.92"/>
	<path class="st0" d="M690.66,231.92c0-3.76-3.05-6.81-6.81-6.81c-3.76,0-6.81,3.05-6.81,6.81c0,3.76,3.05,6.81,6.81,6.81
		C687.61,238.73,690.66,235.68,690.66,231.92"/>
	<path class="st0" d="M599.94,186.56c0-3.76-3.05-6.81-6.81-6.81s-6.81,3.05-6.81,6.81c0,3.76,3.05,6.81,6.81,6.81
		S599.94,190.32,599.94,186.56"/>
	<path class="st0" d="M622.62,186.56c0-3.76-3.05-6.81-6.81-6.81s-6.81,3.05-6.81,6.81c0,3.76,3.05,6.81,6.81,6.81
		S622.62,190.32,622.62,186.56"/>
	<path class="st0" d="M645.3,186.56c0-3.76-3.05-6.81-6.81-6.81c-3.76,0-6.81,3.05-6.81,6.81c0,3.76,3.05,6.81,6.81,6.81
		C642.25,193.37,645.3,190.32,645.3,186.56"/>
	<path class="st0" d="M667.98,186.56c0-3.76-3.05-6.81-6.81-6.81c-3.76,0-6.81,3.05-6.81,6.81c0,3.76,3.05,6.81,6.81,6.81
		C664.93,193.37,667.98,190.32,667.98,186.56"/>
	<path class="st0" d="M690.66,186.56c0-3.76-3.05-6.81-6.81-6.81c-3.76,0-6.81,3.05-6.81,6.81c0,3.76,3.05,6.81,6.81,6.81
		C687.61,193.37,690.66,190.32,690.66,186.56"/>
	<path class="st0" d="M713.34,186.56c0-3.76-3.05-6.81-6.81-6.81c-3.76,0-6.81,3.05-6.81,6.81c0,3.76,3.05,6.81,6.81,6.81
		C710.29,193.37,713.34,190.32,713.34,186.56"/>
	<path class="st0" d="M736.02,186.56c0-3.76-3.05-6.81-6.81-6.81c-3.76,0-6.81,3.05-6.81,6.81c0,3.76,3.05,6.81,6.81,6.81
		C732.97,193.37,736.02,190.32,736.02,186.56"/>
	<g>
		<path class="st1" d="M615.54,247.83c3.91,0.62,7.82,1.27,11.72,1.96c10.67,1.89,21.48,1.34,32.22,1.76
			c8.09,0.31,16.21,0.4,24.31,0.27c7.91-0.12,15.81-0.58,23.71-1.03c3.09-0.18,6.15-0.73,9.85-1.19c-1.31,2.54-2.37,4.56-3.39,6.61
			c-0.31,0.62-0.62,1.3-0.69,1.97c-0.53,5.08,1.7,8.63,6.44,10.76c3.69,1.66,7.38,3.03,11.49,3.46c2.14,0.22,4.09,1.8,6.24,2.39
			c2.92,0.8,5.91,1.53,8.91,1.77c13.35,1.09,26.08-1.58,38.32-6.81c4.28-1.83,8.67-3.58,12.61-6.01c3.63-2.24,7.37-4.75,9.15-8.96
			c1.61-3.8,1.24-7.66-0.69-11.24c-2.44-4.53-5.13-8.93-7.73-13.43c1.99-0.73,4.25-1.56,6.51-2.4c8.15-3.05,14.84-8.08,20.69-14.52
			c4.37-4.8,7.5-10.27,9.78-16.18c1.71-4.43,2.55-9.2,3.78-13.82c0.49-1.84,1.11-3.67,1.43-5.54c0.54-3.08-0.97-5.35-3.58-6.62
			c-2.62-1.28-5.23-0.54-7.19,1.55c-2.32,2.47-4.41,5.16-6.61,7.75c-0.32,0.38-0.7,0.7-0.88,0.88c-2.07-3.44-4.03-6.91-6.21-10.24
			c-1.01-1.54-2.31-2.95-3.71-4.16c-1.04-0.9-1.28-1.78-1.27-3.07c0.09-8.55-1.38-16.91-3.44-25.16c-1.24-4.97-2.58-9.97-4.51-14.7
			c-2.73-6.68-5.5-13.41-9.86-19.27c-5.37-7.22-10.54-14.6-16.24-21.55c-5.52-6.73-11.17-13.47-17.54-19.37
			c-7.25-6.72-15.03-12.94-23.55-18.12c-4.64-2.82-9.22-5.77-13.97-8.4c-6.53-3.61-13.68-5.55-20.9-7.21
			c-11.29-2.6-22.78-3.25-34.29-3.1c-8.08,0.11-16.15,0.89-24.22,1.38c-1.27,0.08-2.54,0.29-3.82,0.31
			c-12.15,0.19-23.51,3.66-34.46,8.54c-5.72,2.55-11.25,5.56-16.72,8.61c-2.33,1.3-4.44,3.08-6.43,4.87
			c-6.02,5.4-12.25,10.62-17.79,16.48c-5.88,6.21-11.48,12.78-16.45,19.74c-6.14,8.6-10.69,18.16-14.33,28.11
			c-3.24,8.85-6.56,17.67-9.88,26.49c-0.21,0.54-0.71,1.07-1.21,1.39c-2,1.27-4.06,2.45-6.11,3.68c-1.62-1.61-0.93-2.67,0.13-4.36
			c2.87-4.59,5.35-9.44,7.78-14.3c2.59-5.18,3.56-10.85,4.18-16.54c0.23-2.17-0.09-4.41-0.21-6.62c-0.17-3.19-0.51-6.38-0.54-9.57
			c-0.09-8.53-0.61-17.01-3.57-25.11c-2.68-7.33-6.53-13.79-12.49-19.2c-6.4-5.81-13.92-8.64-22-10.49
			c-3.35-0.77-6.83-0.16-10.06,1.1c-3.14,1.23-6.13,2.85-9.29,4.03c-5.22,1.95-9.19,5.52-12.43,9.78
			c-3.91,5.14-7.55,10.53-10.88,16.07c-3.75,6.25-6.36,13.1-7.76,20.22c-0.96,4.88-0.63,10-1.05,15
			c-0.91,10.72,2.69,20.15,7.86,29.27c2.48,4.38,5.31,8.44,8.89,11.92c1.81,1.76,3.83,3.43,6.03,4.63c4.09,2.22,6.31,5.51,7.71,9.89
			c2.46,7.68,5.94,14.95,10.28,21.8c2.17,3.43,3.99,7.08,5.88,10.68c2.37,4.49,5.47,8.38,9.28,11.71
			c3.97,3.47,7.83,7.07,11.94,10.35c4.61,3.68,9.83,6.39,15.47,8.12c2.03,0.62,2.08,1.58,1.61,3.28c-1.6,5.85-4.83,10.73-8.67,15.33
			c-2.07,2.48-3.97,5.16-5.58,7.96c-2.27,3.97-1.4,9.8,2.12,12.71c4.7,3.9,10.1,6.85,16.22,7.67c6.37,0.85,12.82,1.05,19.24,1.51
			c5.05,0.36,9.58-1.52,14-3.58c2.85-1.33,5.44-3.22,8.24-4.66c0.83-0.43,2-0.19,3.01-0.23c0.28-0.01,0.56,0.12,0.84,0.14
			c4.52,0.28,9.05,0.87,13.56,0.73c4.66-0.14,9.26-0.92,12.74-4.74c2.34-2.57,3.15-5.76,4.24-8.85c0.67-1.92,1.03-3.94,1.59-6.15
			C607.57,246.64,611.56,247.2,615.54,247.83z"/>
	</g>
</g>
</svg>
